<svg id="drawing" xmlns="http://www.w3.org/2000/svg" version="1.1" xmlns:xlink="http://www.w3.org/1999/xlink" xmlns:svgjs="http://svgjs.com/svgjs" width="881" height="734" viewBox="90 101 881 734"><defs id="SvgjsDefs1001"><marker id="SvgjsMarker1031" markerWidth="16.23606797749979" markerHeight="10.550836550532098" refX="-1" refY="3.8990363547948754" viewBox="-1 -1.3763819204711738 16.23606797749979 10.550836550532098" orient="auto" markerUnits="userSpaceOnUse"><path id="SvgjsPath1032" d="M12 3.8990363547948754L0 7.798072709589751V0Z " stroke="#323232" stroke-width="2" fill="#323232" transform="matrix(1,0,0,1,0,0)"></path></marker><marker id="SvgjsMarker1038" markerWidth="16.23606797749979" markerHeight="10.550836550532098" refX="-1" refY="3.8990363547948754" viewBox="-1 -1.3763819204711738 16.23606797749979 10.550836550532098" orient="auto" markerUnits="userSpaceOnUse"><path id="SvgjsPath1039" d="M12 3.8990363547948754L0 7.798072709589751V0Z " stroke="#323232" stroke-width="2" fill="#323232" transform="matrix(1,0,0,1,0,0)"></path></marker><marker id="SvgjsMarker1050" markerWidth="16.23606797749979" markerHeight="10.550836550532098" refX="-1" refY="3.8990363547948754" viewBox="-1 -1.3763819204711738 16.23606797749979 10.550836550532098" orient="auto" markerUnits="userSpaceOnUse"><path id="SvgjsPath1051" d="M12 3.8990363547948754L0 7.798072709589751V0Z " stroke="#323232" stroke-width="2" fill="#323232" transform="matrix(1,0,0,1,0,0)"></path></marker><marker id="SvgjsMarker1069" markerWidth="16.23606797749979" markerHeight="10.550836550532098" refX="-1" refY="3.8990363547948754" viewBox="-1 -1.3763819204711738 16.23606797749979 10.550836550532098" orient="auto" markerUnits="userSpaceOnUse"><path id="SvgjsPath1070" d="M12 3.8990363547948754L0 7.798072709589751V0Z " stroke="#323232" stroke-width="2" fill="#323232" transform="matrix(1,0,0,1,0,0)"></path></marker><marker id="SvgjsMarker1076" markerWidth="16.23606797749979" markerHeight="10.550836550532098" refX="-1" refY="3.8990363547948754" viewBox="-1 -1.3763819204711738 16.23606797749979 10.550836550532098" orient="auto" markerUnits="userSpaceOnUse"><path id="SvgjsPath1077" d="M12 3.8990363547948754L0 7.798072709589751V0Z " stroke="#323232" stroke-width="2" fill="#323232" transform="matrix(1,0,0,1,0,0)"></path></marker><marker id="SvgjsMarker1083" markerWidth="16.23606797749979" markerHeight="10.550836550532098" refX="-1" refY="3.8990363547948754" viewBox="-1 -1.3763819204711738 16.23606797749979 10.550836550532098" orient="auto" markerUnits="userSpaceOnUse"><path id="SvgjsPath1084" d="M12 3.8990363547948754L0 7.798072709589751V0Z " stroke="#323232" stroke-width="2" fill="#323232" transform="matrix(1,0,0,1,0,0)"></path></marker><marker id="SvgjsMarker1095" markerWidth="16.23606797749979" markerHeight="10.550836550532098" refX="-1" refY="3.8990363547948754" viewBox="-1 -1.3763819204711738 16.23606797749979 10.550836550532098" orient="auto" markerUnits="userSpaceOnUse"><path id="SvgjsPath1096" d="M12 3.8990363547948754L0 7.798072709589751V0Z " stroke="#323232" stroke-width="2" fill="#323232" transform="matrix(1,0,0,1,0,0)"></path></marker><marker id="SvgjsMarker1102" markerWidth="16.23606797749979" markerHeight="10.550836550532098" refX="-1" refY="3.8990363547948754" viewBox="-1 -1.3763819204711738 16.23606797749979 10.550836550532098" orient="auto" markerUnits="userSpaceOnUse"><path id="SvgjsPath1103" d="M12 3.8990363547948754L0 7.798072709589751V0Z " stroke="#323232" stroke-width="2" fill="#323232" transform="matrix(1,0,0,1,0,0)"></path></marker><marker id="SvgjsMarker1109" markerWidth="16.23606797749979" markerHeight="10.550836550532098" refX="-1" refY="3.8990363547948754" viewBox="-1 -1.3763819204711738 16.23606797749979 10.550836550532098" orient="auto" markerUnits="userSpaceOnUse"><path id="SvgjsPath1110" d="M12 3.8990363547948754L0 7.798072709589751V0Z " stroke="#323232" stroke-width="2" fill="#323232" transform="matrix(1,0,0,1,0,0)"></path></marker><marker id="SvgjsMarker1120" markerWidth="16.23606797749979" markerHeight="10.550836550532098" refX="-1" refY="3.8990363547948754" viewBox="-1 -1.3763819204711738 16.23606797749979 10.550836550532098" orient="auto" markerUnits="userSpaceOnUse"><path id="SvgjsPath1121" d="M12 3.8990363547948754L0 7.798072709589751V0Z " stroke="#323232" stroke-width="2" fill="#323232" transform="matrix(1,0,0,1,0,0)"></path></marker><marker id="SvgjsMarker1127" markerWidth="16.23606797749979" markerHeight="10.550836550532098" refX="-1" refY="3.8990363547948754" viewBox="-1 -1.3763819204711738 16.23606797749979 10.550836550532098" orient="auto" markerUnits="userSpaceOnUse"><path id="SvgjsPath1128" d="M12 3.8990363547948754L0 7.798072709589751V0Z " stroke="#323232" stroke-width="2" fill="#323232" transform="matrix(1,0,0,1,0,0)"></path></marker><marker id="SvgjsMarker1134" markerWidth="16.23606797749979" markerHeight="10.550836550532098" refX="-1" refY="3.8990363547948754" viewBox="-1 -1.3763819204711738 16.23606797749979 10.550836550532098" orient="auto" markerUnits="userSpaceOnUse"><path id="SvgjsPath1135" d="M12 3.8990363547948754L0 7.798072709589751V0Z " stroke="#323232" stroke-width="2" fill="#323232" transform="matrix(1,0,0,1,0,0)"></path></marker><marker id="SvgjsMarker1145" markerWidth="16.23606797749979" markerHeight="10.550836550532098" refX="-1" refY="3.8990363547948754" viewBox="-1 -1.3763819204711738 16.23606797749979 10.550836550532098" orient="auto" markerUnits="userSpaceOnUse"><path id="SvgjsPath1146" d="M12 3.8990363547948754L0 7.798072709589751V0Z " stroke="#323232" stroke-width="2" fill="#323232" transform="matrix(1,0,0,1,0,0)"></path></marker><marker id="SvgjsMarker1152" markerWidth="16.23606797749979" markerHeight="10.550836550532098" refX="-1" refY="3.8990363547948754" viewBox="-1 -1.3763819204711738 16.23606797749979 10.550836550532098" orient="auto" markerUnits="userSpaceOnUse"><path id="SvgjsPath1153" d="M12 3.8990363547948754L0 7.798072709589751V0Z " stroke="#323232" stroke-width="2" fill="#323232" transform="matrix(1,0,0,1,0,0)"></path></marker><marker id="SvgjsMarker1163" markerWidth="16.23606797749979" markerHeight="10.550836550532098" refX="-1" refY="3.8990363547948754" viewBox="-1 -1.3763819204711738 16.23606797749979 10.550836550532098" orient="auto" markerUnits="userSpaceOnUse"><path id="SvgjsPath1164" d="M12 3.8990363547948754L0 7.798072709589751V0Z " stroke="#323232" stroke-width="2" fill="#323232" transform="matrix(1,0,0,1,0,0)"></path></marker><marker id="SvgjsMarker1170" markerWidth="16.23606797749979" markerHeight="10.550836550532098" refX="-1" refY="3.8990363547948754" viewBox="-1 -1.3763819204711738 16.23606797749979 10.550836550532098" orient="auto" markerUnits="userSpaceOnUse"><path id="SvgjsPath1171" d="M12 3.8990363547948754L0 7.798072709589751V0Z " stroke="#323232" stroke-width="2" fill="#323232" transform="matrix(1,0,0,1,0,0)"></path></marker><marker id="SvgjsMarker1182" markerWidth="16.23606797749979" markerHeight="10.550836550532098" refX="-1" refY="3.8990363547948754" viewBox="-1 -1.3763819204711738 16.23606797749979 10.550836550532098" orient="auto" markerUnits="userSpaceOnUse"><path id="SvgjsPath1183" d="M12 3.8990363547948754L0 7.798072709589751V0Z " stroke="#323232" stroke-width="2" fill="#323232" transform="matrix(1,0,0,1,0,0)"></path></marker><marker id="SvgjsMarker1189" markerWidth="16.23606797749979" markerHeight="10.550836550532098" refX="-1" refY="3.8990363547948754" viewBox="-1 -1.3763819204711738 16.23606797749979 10.550836550532098" orient="auto" markerUnits="userSpaceOnUse"><path id="SvgjsPath1190" d="M12 3.8990363547948754L0 7.798072709589751V0Z " stroke="#323232" stroke-width="2" fill="#323232" transform="matrix(1,0,0,1,0,0)"></path></marker><marker id="SvgjsMarker1196" markerWidth="16.23606797749979" markerHeight="10.550836550532098" refX="-1" refY="3.8990363547948754" viewBox="-1 -1.3763819204711738 16.23606797749979 10.550836550532098" orient="auto" markerUnits="userSpaceOnUse"><path id="SvgjsPath1197" d="M12 3.8990363547948754L0 7.798072709589751V0Z " stroke="#323232" stroke-width="2" fill="#323232" transform="matrix(1,0,0,1,0,0)"></path></marker><marker id="SvgjsMarker1203" markerWidth="16.23606797749979" markerHeight="10.550836550532098" refX="-1" refY="3.8990363547948754" viewBox="-1 -1.3763819204711738 16.23606797749979 10.550836550532098" orient="auto" markerUnits="userSpaceOnUse"><path id="SvgjsPath1204" d="M12 3.8990363547948754L0 7.798072709589751V0Z " stroke="#323232" stroke-width="2" fill="#323232" transform="matrix(1,0,0,1,0,0)"></path></marker></defs><g id="SvgjsG1007"><path id="SvgjsPath1008" d="M90 101H971V835H90V101Z " fill-opacity="0" fill="none"></path><g id="SvgjsG1009"><g id="SvgjsG1010" transform="translate(432 355)" opacity="1"><path id="SvgjsPath1011" d="M0 0L100 0L100 70L0 70Z " stroke-dasharray="none" stroke="#323232" stroke-width="2" fill="#0066cc" opacity="1"></path><g id="SvgjsG1012" transform="matrix(1 0 0 1 10 26.875)" fill="#ffffff"><text id="SvgjsText1013" font-family="Microsoft Yahei,SimHei,Arial,SimSun" fill="#000000" font-size="13" font-weight="normal" font-style="normal" text-anchor="middle" text-decoration="blink" x="40" y="13">Receiver</text></g></g><g id="SvgjsG1014" transform="translate(110 250)" opacity="1"><path id="SvgjsPath1015" d="M0 0L66 0L66 37L0 37Z " stroke-dasharray="none" stroke="#323232" stroke-width="2" fill="#66b2ff" opacity="1"></path><g id="SvgjsG1016" transform="matrix(1 0 0 1 10 2.25)" fill="#ffffff"><text id="SvgjsText1017" font-family="Microsoft Yahei,SimHei,Arial,SimSun" fill="#000000" font-size="13" font-weight="normal" font-style="normal" text-anchor="middle" text-decoration="blink" x="23" y="13">Client #</text><text id="SvgjsText1018" font-family="Microsoft Yahei,SimHei,Arial,SimSun" fill="#000000" font-size="13" font-weight="normal" font-style="normal" text-anchor="middle" text-decoration="blink" x="23" y="29.25">1</text></g></g><g id="SvgjsG1019" transform="translate(162 175)" opacity="1"><path id="SvgjsPath1020" d="M0 0L66 0L66 37L0 37Z " stroke-dasharray="none" stroke="#323232" stroke-width="2" fill="#66b2ff" opacity="1"></path><g id="SvgjsG1021" transform="matrix(1 0 0 1 10 2.25)" fill="#ffffff"><text id="SvgjsText1022" font-family="Microsoft Yahei,SimHei,Arial,SimSun" fill="#000000" font-size="13" font-weight="normal" font-style="normal" text-anchor="middle" text-decoration="blink" x="23" y="13">Client #</text><text id="SvgjsText1023" font-family="Microsoft Yahei,SimHei,Arial,SimSun" fill="#000000" font-size="13" font-weight="normal" font-style="normal" text-anchor="middle" text-decoration="blink" x="23" y="29.25">2</text></g></g><g id="SvgjsG1024" transform="translate(269 138)" opacity="1"><path id="SvgjsPath1025" d="M0 0L66 0L66 37L0 37Z " stroke-dasharray="none" stroke="#323232" stroke-width="2" fill="#66b2ff" opacity="1"></path><g id="SvgjsG1026" transform="matrix(1 0 0 1 10 2.25)" fill="#ffffff"><text id="SvgjsText1027" font-family="Microsoft Yahei,SimHei,Arial,SimSun" fill="#000000" font-size="13" font-weight="normal" font-style="normal" text-anchor="middle" text-decoration="blink" x="23" y="13">Client #</text><text id="SvgjsText1028" font-family="Microsoft Yahei,SimHei,Arial,SimSun" fill="#000000" font-size="13" font-weight="normal" font-style="normal" text-anchor="middle" text-decoration="blink" x="23" y="29.25">3</text></g></g><g id="SvgjsG1029"><path id="SvgjsPath1030" d="M176 268.5C282 307 316 371 416.96428752888346 387.5372539917999 " stroke-dasharray="none" stroke="#323232" stroke-width="2" fill="none" marker-end="url(#SvgjsMarker1031)"></path><g id="SvgjsG1033" transform="matrix(1 0 0 1 298.37053594111046 328.129656748975)"><path id="SvgjsPath1034" d="M0 0H0V0H0V0Z " fill="#ffffff" transform="translate(0 0)"></path><text id="SvgjsText1035" font-family="Microsoft Yahei,SimSun" fill="#000000" font-size="13" font-weight="normal" font-style="normal" text-anchor="middle" text-decoration="blink" x="0" y="0"></text></g></g><g id="SvgjsG1036"><path id="SvgjsPath1037" d="M227.53589838486226 209C316.8378543377713 260.55850830857213 372 291 428.9050954101176 344.5577368565813 " stroke-dasharray="none" stroke="#323232" stroke-width="2" fill="none" marker-end="url(#SvgjsMarker1038)"></path><g id="SvgjsG1040" transform="matrix(1 0 0 1 340.36931960103675 267.9041577227872)"><path id="SvgjsPath1041" d="M0 0H0V0H0V0Z " fill="#ffffff" transform="translate(0 0)"></path><text id="SvgjsText1042" font-family="Microsoft Yahei,SimSun" fill="#000000" font-size="13" font-weight="normal" font-style="normal" text-anchor="middle" text-decoration="blink" x="0" y="0"></text></g></g><g id="SvgjsG1043" transform="translate(685 355)" opacity="1"><path id="SvgjsPath1044" d="M0 0L100 0L100 70L0 70Z " stroke-dasharray="none" stroke="#323232" stroke-width="2" fill="#80ff00" opacity="1"></path><g id="SvgjsG1045" transform="matrix(1 0 0 1 10 18.75)" fill="#ffffff"><text id="SvgjsText1046" font-family="Microsoft Yahei,SimHei,Arial,SimSun" fill="#000000" font-size="13" font-weight="normal" font-style="normal" text-anchor="middle" text-decoration="blink" x="40" y="13">Message Pro</text><text id="SvgjsText1047" font-family="Microsoft Yahei,SimHei,Arial,SimSun" fill="#000000" font-size="13" font-weight="normal" font-style="normal" text-anchor="middle" text-decoration="blink" x="40" y="29.25">cessor</text></g></g><g id="SvgjsG1048"><path id="SvgjsPath1049" d="M532 390L669.7639320225002 390 " stroke-dasharray="none" stroke="#323232" stroke-width="2" fill="none" marker-end="url(#SvgjsMarker1050)"></path><g id="SvgjsG1052" transform="matrix(1 0 0 1 600.8819660112501 381.875)"><path id="SvgjsPath1053" d="M0 0H106V17H0V0Z " fill="#ffffff" transform="translate(-53 0)"></path><text id="SvgjsText1054" font-family="Microsoft Yahei,SimSun" fill="#000000" font-size="13" font-weight="normal" font-style="normal" text-anchor="middle" text-decoration="blink" x="0" y="14">Read into meaage</text></g></g><g id="SvgjsG1055" transform="translate(613 509)" opacity="1"><path id="SvgjsPath1056" d="M0 24C0 -8 50 -8 50 24C50 56 0 56 0 24Z " stroke-dasharray="none" stroke="#323232" stroke-width="2" fill="#80ff00" opacity="1"></path><g id="SvgjsG1057" transform="matrix(1 0 0 1 10 15.875)" fill="#ffffff"><text id="SvgjsText1058" font-family="Microsoft Yahei,SimHei,Arial,SimSun" fill="#000000" font-size="13" font-weight="normal" font-style="normal" text-anchor="middle" text-decoration="blink" x="15" y="13">#1</text></g></g><g id="SvgjsG1059" transform="translate(710 509)" opacity="1"><path id="SvgjsPath1060" d="M0 24C0 -8 50 -8 50 24C50 56 0 56 0 24Z " stroke-dasharray="none" stroke="#323232" stroke-width="2" fill="#80ff00" opacity="1"></path><g id="SvgjsG1061" transform="matrix(1 0 0 1 10 15.875)" fill="#ffffff"><text id="SvgjsText1062" font-family="Microsoft Yahei,SimHei,Arial,SimSun" fill="#000000" font-size="13" font-weight="normal" font-style="normal" text-anchor="middle" text-decoration="blink" x="15" y="13">#2</text></g></g><g id="SvgjsG1063" transform="translate(811 509)" opacity="1"><path id="SvgjsPath1064" d="M0 24C0 -8 50 -8 50 24C50 56 0 56 0 24Z " stroke-dasharray="none" stroke="#323232" stroke-width="2" fill="#80ff00" opacity="1"></path><g id="SvgjsG1065" transform="matrix(1 0 0 1 10 15.875)" fill="#ffffff"><text id="SvgjsText1066" font-family="Microsoft Yahei,SimHei,Arial,SimSun" fill="#000000" font-size="13" font-weight="normal" font-style="normal" text-anchor="middle" text-decoration="blink" x="15" y="13">#3</text></g></g><g id="SvgjsG1067"><path id="SvgjsPath1068" d="M704 425C704 467.7307851554357 638 466.2692148445643 638 493.7639320225002 " stroke-dasharray="none" stroke="#323232" stroke-width="2" fill="none" marker-end="url(#SvgjsMarker1069)"></path><g id="SvgjsG1071" transform="matrix(1 0 0 1 671 456.97049150281254)"><path id="SvgjsPath1072" d="M0 0H0V0H0V0Z " fill="#ffffff" transform="translate(0 0)"></path><text id="SvgjsText1073" font-family="Microsoft Yahei,SimSun" fill="#000000" font-size="13" font-weight="normal" font-style="normal" text-anchor="middle" text-decoration="blink" x="0" y="0"></text></g></g><g id="SvgjsG1074"><path id="SvgjsPath1075" d="M735 425C735 458.6 735 475.4 735 493.7639320225002 " stroke-dasharray="none" stroke="#323232" stroke-width="2" fill="none" marker-end="url(#SvgjsMarker1076)"></path><g id="SvgjsG1078" transform="matrix(1 0 0 1 735 456.97049150281254)"><path id="SvgjsPath1079" d="M0 0H114V17H0V0Z " fill="#ffffff" transform="translate(-57 0)"></path><text id="SvgjsText1080" font-family="Microsoft Yahei,SimSun" fill="#000000" font-size="13" font-weight="normal" font-style="normal" text-anchor="middle" text-decoration="blink" x="0" y="14">Process by workers</text></g></g><g id="SvgjsG1081"><path id="SvgjsPath1082" d="M768 425C768 468.2296194755402 836 465.7703805244598 836 493.7639320225002 " stroke-dasharray="none" stroke="#323232" stroke-width="2" fill="none" marker-end="url(#SvgjsMarker1083)"></path><g id="SvgjsG1085" transform="matrix(1 0 0 1 802 456.97049150281254)"><path id="SvgjsPath1086" d="M0 0H0V0H0V0Z " fill="#ffffff" transform="translate(0 0)"></path><text id="SvgjsText1087" font-family="Microsoft Yahei,SimSun" fill="#000000" font-size="13" font-weight="normal" font-style="normal" text-anchor="middle" text-decoration="blink" x="0" y="0"></text></g></g><g id="SvgjsG1088" transform="translate(432 600)" opacity="1"><path id="SvgjsPath1089" d="M0 0L100 0L100 70L0 70Z " stroke-dasharray="none" stroke="#323232" stroke-width="2" fill="#ff3333" opacity="1"></path><g id="SvgjsG1090" transform="matrix(1 0 0 1 10 18.75)" fill="#ffffff"><text id="SvgjsText1091" font-family="Microsoft Yahei,SimHei,Arial,SimSun" fill="#000000" font-size="13" font-weight="normal" font-style="normal" text-anchor="middle" text-decoration="blink" x="40" y="13">Core State M</text><text id="SvgjsText1092" font-family="Microsoft Yahei,SimHei,Arial,SimSun" fill="#000000" font-size="13" font-weight="normal" font-style="normal" text-anchor="middle" text-decoration="blink" x="40" y="29.25">achine</text></g></g><g id="SvgjsG1093"><path id="SvgjsPath1094" d="M630.5176380902051 555.0681483474218C618.9394238679549 598.2786320857763 576.7347845583156 608 547.2360679774998 608 " stroke-dasharray="none" stroke="#323232" stroke-width="2" fill="none" marker-end="url(#SvgjsMarker1095)"></path><g id="SvgjsG1097" transform="matrix(1 0 0 1 595.5970414183146 589.6130055755939)"><path id="SvgjsPath1098" d="M0 0H0V0H0V0Z " fill="#ffffff" transform="translate(0 0)"></path><text id="SvgjsText1099" font-family="Microsoft Yahei,SimSun" fill="#000000" font-size="13" font-weight="normal" font-style="normal" text-anchor="middle" text-decoration="blink" x="0" y="0"></text></g></g><g id="SvgjsG1100"><path id="SvgjsPath1101" d="M723.2678547852221 554.28107663889C688.9110194809873 627.9595477156288 613.2951980889901 623 547.2360679774998 623 " stroke-dasharray="none" stroke="#323232" stroke-width="2" fill="none" marker-end="url(#SvgjsMarker1102)"></path><g id="SvgjsG1104" transform="matrix(1 0 0 1 647.1403219340817 608.144964973222)"><path id="SvgjsPath1105" d="M0 0H80V17H0V0Z " fill="#ffffff" transform="translate(-40 0)"></path><text id="SvgjsText1106" font-family="Microsoft Yahei,SimSun" fill="#000000" font-size="13" font-weight="normal" font-style="normal" text-anchor="middle" text-decoration="blink" x="0" y="14">Modify states</text></g></g><g id="SvgjsG1107"><path id="SvgjsPath1108" d="M823.4226182617407 553.0936922129633C771.7154925636746 663.9799811121237 654.3494826870292 646 547.2360679774998 646 " stroke-dasharray="none" stroke="#323232" stroke-width="2" fill="none" marker-end="url(#SvgjsMarker1109)"></path><g id="SvgjsG1111" transform="matrix(1 0 0 1 706.106701498919 633.0042044436668)"><path id="SvgjsPath1112" d="M0 0H0V0H0V0Z " fill="#ffffff" transform="translate(0 0)"></path><text id="SvgjsText1113" font-family="Microsoft Yahei,SimSun" fill="#000000" font-size="13" font-weight="normal" font-style="normal" text-anchor="middle" text-decoration="blink" x="0" y="0"></text></g></g><g id="SvgjsG1114" transform="translate(257 498)" opacity="1"><path id="SvgjsPath1115" d="M0 0L100 0L100 70L0 70Z " stroke-dasharray="none" stroke="#323232" stroke-width="2" fill="#0066cc" opacity="1"></path><g id="SvgjsG1116" transform="matrix(1 0 0 1 10 26.875)" fill="#ffffff"><text id="SvgjsText1117" font-family="Microsoft Yahei,SimHei,Arial,SimSun" fill="#000000" font-size="13" font-weight="normal" font-style="normal" text-anchor="middle" text-decoration="blink" x="40" y="13">Sender</text></g></g><g id="SvgjsG1118"><path id="SvgjsPath1119" d="M432 635C371.3567810880722 635 296 628.6432189119278 296 583.2360679774998 " stroke-dasharray="none" stroke="#323232" stroke-width="2" fill="none" marker-end="url(#SvgjsMarker1120)"></path><g id="SvgjsG1122" transform="matrix(1 0 0 1 341.2587929080271 618.0207155891604)"><path id="SvgjsPath1123" d="M0 0H68V17H0V0Z " fill="#ffffff" transform="translate(-34 0)"></path><text id="SvgjsText1124" font-family="Microsoft Yahei,SimSun" fill="#000000" font-size="13" font-weight="normal" font-style="normal" text-anchor="middle" text-decoration="blink" x="0" y="14">Send states</text></g></g><g id="SvgjsG1125"><path id="SvgjsPath1126" d="M307 498C307 375.14073091540877 209 327 196.84123193625683 227.12440519068113 " stroke-dasharray="none" stroke="#323232" stroke-width="2" fill="none" marker-end="url(#SvgjsMarker1127)"></path><g id="SvgjsG1129" transform="matrix(1 0 0 1 256.4801539920321 345.8183247421134)"><path id="SvgjsPath1130" d="M0 0H0V0H0V0Z " fill="#ffffff" transform="translate(0 0)"></path><text id="SvgjsText1131" font-family="Microsoft Yahei,SimSun" fill="#000000" font-size="13" font-weight="normal" font-style="normal" text-anchor="middle" text-decoration="blink" x="0" y="0"></text></g></g><g id="SvgjsG1132"><path id="SvgjsPath1133" d="M339 498C339 367.19938838063484 288 305.80061161936516 288 190.2360679774998 " stroke-dasharray="none" stroke="#323232" stroke-width="2" fill="none" marker-end="url(#SvgjsMarker1134)"></path><g id="SvgjsG1136" transform="matrix(1 0 0 1 313.5 330.27950849718746)"><path id="SvgjsPath1137" d="M0 0H0V0H0V0Z " fill="#ffffff" transform="translate(0 0)"></path><text id="SvgjsText1138" font-family="Microsoft Yahei,SimSun" fill="#000000" font-size="13" font-weight="normal" font-style="normal" text-anchor="middle" text-decoration="blink" x="0" y="0"></text></g></g><g id="SvgjsG1139" transform="translate(432 745)" opacity="1"><path id="SvgjsPath1140" d="M0 0L100 0L100 70L0 70Z " stroke-dasharray="none" stroke="#323232" stroke-width="2" fill="#ff3333" opacity="1"></path><g id="SvgjsG1141" transform="matrix(1 0 0 1 10 26.875)" fill="#ffffff"><text id="SvgjsText1142" font-family="Microsoft Yahei,SimHei,Arial,SimSun" fill="#000000" font-size="13" font-weight="normal" font-style="normal" text-anchor="middle" text-decoration="blink" x="40" y="13">Game Loop</text></g></g><g id="SvgjsG1143"><path id="SvgjsPath1144" d="M531.0266371133578 666.3899098007664C576.2994064103599 670.3507638806786 577.4457039208542 780 547.2360679774998 780 " stroke-dasharray="none" stroke="#323232" stroke-width="2" fill="none" marker-end="url(#SvgjsMarker1145)"></path><g id="SvgjsG1147" transform="matrix(1 0 0 1 567.4372545105624 716.5552751803502)"><path id="SvgjsPath1148" d="M0 0H68V17H0V0Z " fill="#ffffff" transform="translate(-34 0)"></path><text id="SvgjsText1149" font-family="Microsoft Yahei,SimSun" fill="#000000" font-size="13" font-weight="normal" font-style="normal" text-anchor="middle" text-decoration="blink" x="0" y="14">Send states</text></g></g><g id="SvgjsG1150"><path id="SvgjsPath1151" d="M432 780C386.7123743323566 780 388.2940493980756 674.6485764243799 417.88905640142264 669.4301781954339 " stroke-dasharray="none" stroke="#323232" stroke-width="2" fill="none" marker-end="url(#SvgjsMarker1152)"></path><g id="SvgjsG1154" transform="matrix(1 0 0 1 396.86354094908995 718.5469884335718)"><path id="SvgjsPath1155" d="M0 0H83V17H0V0Z " fill="#ffffff" transform="translate(-41.5 0)"></path><text id="SvgjsText1156" font-family="Microsoft Yahei,SimSun" fill="#000000" font-size="13" font-weight="normal" font-style="normal" text-anchor="middle" text-decoration="blink" x="0" y="14">Update states</text></g></g><g id="SvgjsG1157" transform="translate(901 509)" opacity="1"><path id="SvgjsPath1158" d="M0 24C0 -8 50 -8 50 24C50 56 0 56 0 24Z " stroke-dasharray="10 4" stroke="#323232" stroke-width="2" fill="#80ff00" opacity="1"></path><g id="SvgjsG1159" transform="matrix(1 0 0 1 10 15.875)" fill="#ffffff"><text id="SvgjsText1160" font-family="Microsoft Yahei,SimHei,Arial,SimSun" fill="#000000" font-size="13" font-weight="normal" font-style="normal" text-anchor="middle" text-decoration="blink" x="15" y="13">...</text></g></g><g id="SvgjsG1161"><path id="SvgjsPath1162" d="M785 411C828 459 926 440.31521274692625 926 493.7639320225002 " stroke-dasharray="10 4" stroke="#323232" stroke-width="2" fill="none" marker-end="url(#SvgjsMarker1163)"></path><g id="SvgjsG1165" transform="matrix(1 0 0 1 871.625 442.2136962829099)"><path id="SvgjsPath1166" d="M0 0H0V0H0V0Z " fill="#ffffff" transform="translate(0 0)"></path><text id="SvgjsText1167" font-family="Microsoft Yahei,SimSun" fill="#000000" font-size="13" font-weight="normal" font-style="normal" text-anchor="middle" text-decoration="blink" x="0" y="0"></text></g></g><g id="SvgjsG1168"><path id="SvgjsPath1169" d="M912.5 553.4019237886466C833.6297745927671 690.0091613983839 689.7404508144659 657 547.2360679774998 657 " stroke-dasharray="10 4" stroke="#323232" stroke-width="2" fill="none" marker-end="url(#SvgjsMarker1170)"></path><g id="SvgjsG1172" transform="matrix(1 0 0 1 753.7308430248999 648.3036759979748)"><path id="SvgjsPath1173" d="M0 0H0V0H0V0Z " fill="#ffffff" transform="translate(0 0)"></path><text id="SvgjsText1174" font-family="Microsoft Yahei,SimSun" fill="#000000" font-size="13" font-weight="normal" font-style="normal" text-anchor="middle" text-decoration="blink" x="0" y="0"></text></g></g><g id="SvgjsG1175" transform="translate(377 121)" opacity="1"><path id="SvgjsPath1176" d="M0 0L66 0L66 37L0 37Z " stroke-dasharray="10 4" stroke="#323232" stroke-width="2" fill="#66b2ff" opacity="1"></path><g id="SvgjsG1177" transform="matrix(1 0 0 1 10 2.25)" fill="#ffffff"><text id="SvgjsText1178" font-family="Microsoft Yahei,SimHei,Arial,SimSun" fill="#000000" font-size="13" font-weight="normal" font-style="normal" text-anchor="middle" text-decoration="blink" x="23" y="13">Client #</text><text id="SvgjsText1179" font-family="Microsoft Yahei,SimHei,Arial,SimSun" fill="#000000" font-size="13" font-weight="normal" font-style="normal" text-anchor="middle" text-decoration="blink" x="23" y="29.25">...</text></g></g><g id="SvgjsG1180"><path id="SvgjsPath1181" d="M410 158C434 237 498 271 512.8076005608328 340.1021359505532 " stroke-dasharray="10 4" stroke="#323232" stroke-width="2" fill="none" marker-end="url(#SvgjsMarker1182)"></path><g id="SvgjsG1184" transform="matrix(1 0 0 1 464.8509500701041 244.63776699381916)"><path id="SvgjsPath1185" d="M0 0H0V0H0V0Z " fill="#ffffff" transform="translate(0 0)"></path><text id="SvgjsText1186" font-family="Microsoft Yahei,SimSun" fill="#000000" font-size="13" font-weight="normal" font-style="normal" text-anchor="middle" text-decoration="blink" x="0" y="0"></text></g></g><g id="SvgjsG1187"><path id="SvgjsPath1188" d="M357 511C380 354 321 274 370.55688830351835 167.80666792103207 " stroke-dasharray="10 4" stroke="#323232" stroke-width="2" fill="none" marker-end="url(#SvgjsMarker1189)"></path><g id="SvgjsG1191" transform="matrix(1 0 0 1 353.8196110379398 312.225833490129)"><path id="SvgjsPath1192" d="M0 0H0V0H0V0Z " fill="#ffffff" transform="translate(0 0)"></path><text id="SvgjsText1193" font-family="Microsoft Yahei,SimSun" fill="#000000" font-size="13" font-weight="normal" font-style="normal" text-anchor="middle" text-decoration="blink" x="0" y="0"></text></g></g><g id="SvgjsG1194"><path id="SvgjsPath1195" d="M302 175C362 264 432 245 475.69527021133763 341.1295944649427 " stroke-dasharray="none" stroke="#323232" stroke-width="2" fill="none" marker-end="url(#SvgjsMarker1196)"></path><g id="SvgjsG1198" transform="matrix(1 0 0 1 394.9619087764172 247.26619930811785)"><path id="SvgjsPath1199" d="M0 0H68V17H0V0Z " fill="#ffffff" transform="translate(-34 0)"></path><text id="SvgjsText1200" font-family="Microsoft Yahei,SimSun" fill="#000000" font-size="13" font-weight="normal" font-style="normal" text-anchor="middle" text-decoration="blink" x="0" y="14">Send action</text></g></g><g id="SvgjsG1201"><path id="SvgjsPath1202" d="M273 498C273 398.86695808157606 143.00000000000003 386.13304191842394 143 302.2360679774998 " stroke-dasharray="none" stroke="#323232" stroke-width="2" fill="none" marker-end="url(#SvgjsMarker1203)"></path><g id="SvgjsG1205" transform="matrix(1 0 0 1 208 386.27950849718746)"><path id="SvgjsPath1206" d="M0 0H97V17H0V0Z " fill="#ffffff" transform="translate(-48.5 0)"></path><text id="SvgjsText1207" font-family="Microsoft Yahei,SimSun" fill="#000000" font-size="13" font-weight="normal" font-style="normal" text-anchor="middle" text-decoration="blink" x="0" y="14">Send frame data</text></g></g></g></g></svg>